<mxfile host="Electron" modified="2025-05-16T07:07:03.070Z" agent="Mozilla/5.0 (Windows NT 10.0; Win64; x64) AppleWebKit/537.36 (KHTML, like Gecko) draw.io/24.5.3 Chrome/124.0.6367.207 Electron/30.0.6 Safari/537.36" etag="0v51EiaHPRPV6kz3AW5u" version="24.5.3" type="device">
  <diagram name="Страница — 1" id="ZhjHu27LZgsK4C1tmzON">
    <mxGraphModel dx="2150" dy="1035" grid="0" gridSize="10" guides="1" tooltips="1" connect="1" arrows="1" fold="1" page="0" pageScale="1" pageWidth="2339" pageHeight="3300" math="0" shadow="0">
      <root>
        <mxCell id="0" />
        <mxCell id="1" parent="0" />
        <mxCell id="l8u6pm3dY9Aq0G2dfLFQ-4" value="" style="group" vertex="1" connectable="0" parent="1">
          <mxGeometry x="400" y="300" width="180" height="80" as="geometry" />
        </mxCell>
        <mxCell id="l8u6pm3dY9Aq0G2dfLFQ-1" value="Loading.cs" style="rounded=0;whiteSpace=wrap;html=1;" vertex="1" parent="l8u6pm3dY9Aq0G2dfLFQ-4">
          <mxGeometry x="20" width="160" height="80" as="geometry" />
        </mxCell>
        <mxCell id="l8u6pm3dY9Aq0G2dfLFQ-2" value="" style="rounded=0;whiteSpace=wrap;html=1;" vertex="1" parent="l8u6pm3dY9Aq0G2dfLFQ-4">
          <mxGeometry y="10" width="40" height="20" as="geometry" />
        </mxCell>
        <mxCell id="l8u6pm3dY9Aq0G2dfLFQ-3" value="" style="rounded=0;whiteSpace=wrap;html=1;" vertex="1" parent="l8u6pm3dY9Aq0G2dfLFQ-4">
          <mxGeometry y="50" width="40" height="20" as="geometry" />
        </mxCell>
        <mxCell id="l8u6pm3dY9Aq0G2dfLFQ-9" value="" style="group" vertex="1" connectable="0" parent="1">
          <mxGeometry x="400" y="170" width="180" height="80" as="geometry" />
        </mxCell>
        <mxCell id="l8u6pm3dY9Aq0G2dfLFQ-10" value="Program.cs" style="rounded=0;whiteSpace=wrap;html=1;" vertex="1" parent="l8u6pm3dY9Aq0G2dfLFQ-9">
          <mxGeometry x="20" width="160" height="80" as="geometry" />
        </mxCell>
        <mxCell id="l8u6pm3dY9Aq0G2dfLFQ-11" value="" style="rounded=0;whiteSpace=wrap;html=1;" vertex="1" parent="l8u6pm3dY9Aq0G2dfLFQ-9">
          <mxGeometry y="10" width="40" height="20" as="geometry" />
        </mxCell>
        <mxCell id="l8u6pm3dY9Aq0G2dfLFQ-12" value="" style="rounded=0;whiteSpace=wrap;html=1;" vertex="1" parent="l8u6pm3dY9Aq0G2dfLFQ-9">
          <mxGeometry y="50" width="40" height="20" as="geometry" />
        </mxCell>
        <mxCell id="l8u6pm3dY9Aq0G2dfLFQ-13" value="" style="group" vertex="1" connectable="0" parent="1">
          <mxGeometry x="400" y="30" width="180" height="80" as="geometry" />
        </mxCell>
        <mxCell id="l8u6pm3dY9Aq0G2dfLFQ-14" value="КП.exe&lt;div&gt;(Исполняемый файл)&lt;/div&gt;" style="rounded=0;whiteSpace=wrap;html=1;" vertex="1" parent="l8u6pm3dY9Aq0G2dfLFQ-13">
          <mxGeometry x="20" width="160" height="80" as="geometry" />
        </mxCell>
        <mxCell id="l8u6pm3dY9Aq0G2dfLFQ-15" value="" style="rounded=0;whiteSpace=wrap;html=1;" vertex="1" parent="l8u6pm3dY9Aq0G2dfLFQ-13">
          <mxGeometry y="10" width="40" height="20" as="geometry" />
        </mxCell>
        <mxCell id="l8u6pm3dY9Aq0G2dfLFQ-16" value="" style="rounded=0;whiteSpace=wrap;html=1;" vertex="1" parent="l8u6pm3dY9Aq0G2dfLFQ-13">
          <mxGeometry y="50" width="40" height="20" as="geometry" />
        </mxCell>
        <mxCell id="l8u6pm3dY9Aq0G2dfLFQ-17" value="" style="endArrow=classic;html=1;rounded=0;dashed=1;exitX=0.5;exitY=1;exitDx=0;exitDy=0;entryX=0.5;entryY=0;entryDx=0;entryDy=0;" edge="1" parent="1" source="l8u6pm3dY9Aq0G2dfLFQ-14" target="l8u6pm3dY9Aq0G2dfLFQ-10">
          <mxGeometry width="50" height="50" relative="1" as="geometry">
            <mxPoint x="400" y="280" as="sourcePoint" />
            <mxPoint x="500" y="160" as="targetPoint" />
          </mxGeometry>
        </mxCell>
        <mxCell id="l8u6pm3dY9Aq0G2dfLFQ-18" value="" style="endArrow=classic;html=1;rounded=0;dashed=1;exitX=0.5;exitY=1;exitDx=0;exitDy=0;entryX=0.5;entryY=0;entryDx=0;entryDy=0;" edge="1" parent="1" source="l8u6pm3dY9Aq0G2dfLFQ-10" target="l8u6pm3dY9Aq0G2dfLFQ-1">
          <mxGeometry width="50" height="50" relative="1" as="geometry">
            <mxPoint x="510" y="120" as="sourcePoint" />
            <mxPoint x="510" y="180" as="targetPoint" />
          </mxGeometry>
        </mxCell>
        <mxCell id="l8u6pm3dY9Aq0G2dfLFQ-19" value="" style="group" vertex="1" connectable="0" parent="1">
          <mxGeometry x="400" y="430" width="180" height="80" as="geometry" />
        </mxCell>
        <mxCell id="l8u6pm3dY9Aq0G2dfLFQ-20" value="Form1.cs" style="rounded=0;whiteSpace=wrap;html=1;" vertex="1" parent="l8u6pm3dY9Aq0G2dfLFQ-19">
          <mxGeometry x="20" width="160" height="80" as="geometry" />
        </mxCell>
        <mxCell id="l8u6pm3dY9Aq0G2dfLFQ-21" value="" style="rounded=0;whiteSpace=wrap;html=1;" vertex="1" parent="l8u6pm3dY9Aq0G2dfLFQ-19">
          <mxGeometry y="10" width="40" height="20" as="geometry" />
        </mxCell>
        <mxCell id="l8u6pm3dY9Aq0G2dfLFQ-22" value="" style="rounded=0;whiteSpace=wrap;html=1;" vertex="1" parent="l8u6pm3dY9Aq0G2dfLFQ-19">
          <mxGeometry y="50" width="40" height="20" as="geometry" />
        </mxCell>
        <mxCell id="l8u6pm3dY9Aq0G2dfLFQ-23" value="" style="endArrow=classic;html=1;rounded=0;dashed=1;exitX=0.5;exitY=1;exitDx=0;exitDy=0;entryX=0.5;entryY=0;entryDx=0;entryDy=0;" edge="1" parent="1" target="l8u6pm3dY9Aq0G2dfLFQ-20">
          <mxGeometry width="50" height="50" relative="1" as="geometry">
            <mxPoint x="500" y="380" as="sourcePoint" />
            <mxPoint x="510" y="310" as="targetPoint" />
          </mxGeometry>
        </mxCell>
        <mxCell id="l8u6pm3dY9Aq0G2dfLFQ-25" value="*.png" style="strokeWidth=1;html=1;shape=mxgraph.flowchart.direct_data;whiteSpace=wrap;" vertex="1" parent="1">
          <mxGeometry x="660" y="320" width="133.33" height="80" as="geometry" />
        </mxCell>
        <mxCell id="l8u6pm3dY9Aq0G2dfLFQ-26" value="*.jpg" style="strokeWidth=1;html=1;shape=mxgraph.flowchart.direct_data;whiteSpace=wrap;" vertex="1" parent="1">
          <mxGeometry x="660" y="430" width="133.33" height="80" as="geometry" />
        </mxCell>
        <mxCell id="l8u6pm3dY9Aq0G2dfLFQ-27" value="" style="endArrow=classic;html=1;rounded=0;dashed=1;exitX=0;exitY=0.5;exitDx=0;exitDy=0;entryX=1;entryY=0.5;entryDx=0;entryDy=0;exitPerimeter=0;" edge="1" parent="1" source="l8u6pm3dY9Aq0G2dfLFQ-25" target="l8u6pm3dY9Aq0G2dfLFQ-20">
          <mxGeometry width="50" height="50" relative="1" as="geometry">
            <mxPoint x="510" y="390" as="sourcePoint" />
            <mxPoint x="510" y="440" as="targetPoint" />
          </mxGeometry>
        </mxCell>
        <mxCell id="l8u6pm3dY9Aq0G2dfLFQ-28" value="" style="endArrow=classic;html=1;rounded=0;dashed=1;exitX=0;exitY=0.5;exitDx=0;exitDy=0;entryX=1;entryY=0.5;entryDx=0;entryDy=0;exitPerimeter=0;" edge="1" parent="1" source="l8u6pm3dY9Aq0G2dfLFQ-26" target="l8u6pm3dY9Aq0G2dfLFQ-20">
          <mxGeometry width="50" height="50" relative="1" as="geometry">
            <mxPoint x="670" y="430" as="sourcePoint" />
            <mxPoint x="590" y="480" as="targetPoint" />
          </mxGeometry>
        </mxCell>
        <mxCell id="l8u6pm3dY9Aq0G2dfLFQ-29" value="" style="group" vertex="1" connectable="0" parent="1">
          <mxGeometry x="410" y="600" width="180" height="80" as="geometry" />
        </mxCell>
        <mxCell id="l8u6pm3dY9Aq0G2dfLFQ-30" value="Form3.cs" style="rounded=0;whiteSpace=wrap;html=1;" vertex="1" parent="l8u6pm3dY9Aq0G2dfLFQ-29">
          <mxGeometry x="20" width="160" height="80" as="geometry" />
        </mxCell>
        <mxCell id="l8u6pm3dY9Aq0G2dfLFQ-31" value="" style="rounded=0;whiteSpace=wrap;html=1;" vertex="1" parent="l8u6pm3dY9Aq0G2dfLFQ-29">
          <mxGeometry y="10" width="40" height="20" as="geometry" />
        </mxCell>
        <mxCell id="l8u6pm3dY9Aq0G2dfLFQ-32" value="" style="rounded=0;whiteSpace=wrap;html=1;" vertex="1" parent="l8u6pm3dY9Aq0G2dfLFQ-29">
          <mxGeometry y="50" width="40" height="20" as="geometry" />
        </mxCell>
        <mxCell id="l8u6pm3dY9Aq0G2dfLFQ-33" value="" style="group" vertex="1" connectable="0" parent="1">
          <mxGeometry x="180" y="600" width="180" height="80" as="geometry" />
        </mxCell>
        <mxCell id="l8u6pm3dY9Aq0G2dfLFQ-34" value="Form2.cs" style="rounded=0;whiteSpace=wrap;html=1;" vertex="1" parent="l8u6pm3dY9Aq0G2dfLFQ-33">
          <mxGeometry x="20" width="160" height="80" as="geometry" />
        </mxCell>
        <mxCell id="l8u6pm3dY9Aq0G2dfLFQ-35" value="" style="rounded=0;whiteSpace=wrap;html=1;" vertex="1" parent="l8u6pm3dY9Aq0G2dfLFQ-33">
          <mxGeometry y="10" width="40" height="20" as="geometry" />
        </mxCell>
        <mxCell id="l8u6pm3dY9Aq0G2dfLFQ-36" value="" style="rounded=0;whiteSpace=wrap;html=1;" vertex="1" parent="l8u6pm3dY9Aq0G2dfLFQ-33">
          <mxGeometry y="50" width="40" height="20" as="geometry" />
        </mxCell>
        <mxCell id="l8u6pm3dY9Aq0G2dfLFQ-37" value="" style="group" vertex="1" connectable="0" parent="1">
          <mxGeometry x="636.66" y="600" width="180" height="80" as="geometry" />
        </mxCell>
        <mxCell id="l8u6pm3dY9Aq0G2dfLFQ-38" value="Form6.cs" style="rounded=0;whiteSpace=wrap;html=1;" vertex="1" parent="l8u6pm3dY9Aq0G2dfLFQ-37">
          <mxGeometry x="20" width="160" height="80" as="geometry" />
        </mxCell>
        <mxCell id="l8u6pm3dY9Aq0G2dfLFQ-39" value="" style="rounded=0;whiteSpace=wrap;html=1;" vertex="1" parent="l8u6pm3dY9Aq0G2dfLFQ-37">
          <mxGeometry y="10" width="40" height="20" as="geometry" />
        </mxCell>
        <mxCell id="l8u6pm3dY9Aq0G2dfLFQ-40" value="" style="rounded=0;whiteSpace=wrap;html=1;" vertex="1" parent="l8u6pm3dY9Aq0G2dfLFQ-37">
          <mxGeometry y="50" width="40" height="20" as="geometry" />
        </mxCell>
        <mxCell id="l8u6pm3dY9Aq0G2dfLFQ-41" value="" style="endArrow=classic;html=1;rounded=0;dashed=1;exitX=0.5;exitY=1;exitDx=0;exitDy=0;" edge="1" parent="1" source="l8u6pm3dY9Aq0G2dfLFQ-20">
          <mxGeometry width="50" height="50" relative="1" as="geometry">
            <mxPoint x="670" y="370" as="sourcePoint" />
            <mxPoint x="500" y="600" as="targetPoint" />
          </mxGeometry>
        </mxCell>
        <mxCell id="l8u6pm3dY9Aq0G2dfLFQ-42" value="" style="endArrow=classic;html=1;rounded=0;dashed=1;exitX=0.5;exitY=1;exitDx=0;exitDy=0;entryX=0.5;entryY=0;entryDx=0;entryDy=0;" edge="1" parent="1" source="l8u6pm3dY9Aq0G2dfLFQ-20" target="l8u6pm3dY9Aq0G2dfLFQ-34">
          <mxGeometry width="50" height="50" relative="1" as="geometry">
            <mxPoint x="510" y="520" as="sourcePoint" />
            <mxPoint x="510" y="610" as="targetPoint" />
          </mxGeometry>
        </mxCell>
        <mxCell id="l8u6pm3dY9Aq0G2dfLFQ-43" value="" style="endArrow=classic;html=1;rounded=0;dashed=1;exitX=0.5;exitY=1;exitDx=0;exitDy=0;entryX=0.5;entryY=0;entryDx=0;entryDy=0;" edge="1" parent="1" source="l8u6pm3dY9Aq0G2dfLFQ-20" target="l8u6pm3dY9Aq0G2dfLFQ-38">
          <mxGeometry width="50" height="50" relative="1" as="geometry">
            <mxPoint x="520" y="530" as="sourcePoint" />
            <mxPoint x="520" y="620" as="targetPoint" />
          </mxGeometry>
        </mxCell>
        <mxCell id="l8u6pm3dY9Aq0G2dfLFQ-44" value="*.png" style="strokeWidth=1;html=1;shape=mxgraph.flowchart.direct_data;whiteSpace=wrap;direction=east;flipV=1;" vertex="1" parent="1">
          <mxGeometry x="213.67000000000002" y="760" width="133.33" height="80" as="geometry" />
        </mxCell>
        <mxCell id="l8u6pm3dY9Aq0G2dfLFQ-45" value="*.jpg" style="strokeWidth=1;html=1;shape=mxgraph.flowchart.direct_data;whiteSpace=wrap;direction=east;flipV=1;" vertex="1" parent="1">
          <mxGeometry x="57" y="760" width="133.33" height="80" as="geometry" />
        </mxCell>
        <mxCell id="l8u6pm3dY9Aq0G2dfLFQ-46" value="" style="endArrow=classic;html=1;rounded=0;dashed=1;exitX=0.5;exitY=1;exitDx=0;exitDy=0;entryX=0.5;entryY=1;entryDx=0;entryDy=0;exitPerimeter=0;" edge="1" parent="1" source="l8u6pm3dY9Aq0G2dfLFQ-44" target="l8u6pm3dY9Aq0G2dfLFQ-34">
          <mxGeometry width="50" height="50" relative="1" as="geometry">
            <mxPoint x="93.32999999999998" y="810" as="sourcePoint" />
            <mxPoint x="163.32999999999998" y="730" as="targetPoint" />
          </mxGeometry>
        </mxCell>
        <mxCell id="l8u6pm3dY9Aq0G2dfLFQ-47" value="" style="endArrow=classic;html=1;rounded=0;dashed=1;exitX=0.5;exitY=1;exitDx=0;exitDy=0;exitPerimeter=0;entryX=0.5;entryY=1;entryDx=0;entryDy=0;" edge="1" parent="1" source="l8u6pm3dY9Aq0G2dfLFQ-45" target="l8u6pm3dY9Aq0G2dfLFQ-34">
          <mxGeometry width="50" height="50" relative="1" as="geometry">
            <mxPoint x="253.32999999999998" y="880.9523809523807" as="sourcePoint" />
            <mxPoint x="40" y="770" as="targetPoint" />
          </mxGeometry>
        </mxCell>
        <mxCell id="l8u6pm3dY9Aq0G2dfLFQ-48" value="*.png" style="strokeWidth=1;html=1;shape=mxgraph.flowchart.direct_data;whiteSpace=wrap;direction=east;flipV=1;" vertex="1" parent="1">
          <mxGeometry x="516.6700000000001" y="760" width="133.33" height="80" as="geometry" />
        </mxCell>
        <mxCell id="l8u6pm3dY9Aq0G2dfLFQ-49" value="*.jpg" style="strokeWidth=1;html=1;shape=mxgraph.flowchart.direct_data;whiteSpace=wrap;direction=east;flipV=1;" vertex="1" parent="1">
          <mxGeometry x="360" y="760" width="133.33" height="80" as="geometry" />
        </mxCell>
        <mxCell id="l8u6pm3dY9Aq0G2dfLFQ-50" value="" style="endArrow=classic;html=1;rounded=0;dashed=1;exitX=0.5;exitY=1;exitDx=0;exitDy=0;entryX=0.5;entryY=1;entryDx=0;entryDy=0;exitPerimeter=0;" edge="1" parent="1" source="l8u6pm3dY9Aq0G2dfLFQ-48">
          <mxGeometry width="50" height="50" relative="1" as="geometry">
            <mxPoint x="318.33" y="810" as="sourcePoint" />
            <mxPoint x="505" y="680" as="targetPoint" />
          </mxGeometry>
        </mxCell>
        <mxCell id="l8u6pm3dY9Aq0G2dfLFQ-51" value="" style="endArrow=classic;html=1;rounded=0;dashed=1;exitX=0.5;exitY=1;exitDx=0;exitDy=0;exitPerimeter=0;entryX=0.5;entryY=1;entryDx=0;entryDy=0;" edge="1" parent="1" source="l8u6pm3dY9Aq0G2dfLFQ-49">
          <mxGeometry width="50" height="50" relative="1" as="geometry">
            <mxPoint x="478.3299999999999" y="880.9523809523807" as="sourcePoint" />
            <mxPoint x="505" y="680" as="targetPoint" />
          </mxGeometry>
        </mxCell>
        <mxCell id="l8u6pm3dY9Aq0G2dfLFQ-52" value="" style="group" vertex="1" connectable="0" parent="1">
          <mxGeometry x="420" y="860" width="180" height="80" as="geometry" />
        </mxCell>
        <mxCell id="l8u6pm3dY9Aq0G2dfLFQ-53" value="Form5.cs" style="rounded=0;whiteSpace=wrap;html=1;" vertex="1" parent="l8u6pm3dY9Aq0G2dfLFQ-52">
          <mxGeometry x="20" width="160" height="80" as="geometry" />
        </mxCell>
        <mxCell id="l8u6pm3dY9Aq0G2dfLFQ-54" value="" style="rounded=0;whiteSpace=wrap;html=1;" vertex="1" parent="l8u6pm3dY9Aq0G2dfLFQ-52">
          <mxGeometry y="10" width="40" height="20" as="geometry" />
        </mxCell>
        <mxCell id="l8u6pm3dY9Aq0G2dfLFQ-55" value="" style="rounded=0;whiteSpace=wrap;html=1;" vertex="1" parent="l8u6pm3dY9Aq0G2dfLFQ-52">
          <mxGeometry y="50" width="40" height="20" as="geometry" />
        </mxCell>
        <mxCell id="l8u6pm3dY9Aq0G2dfLFQ-56" value="" style="endArrow=classic;html=1;rounded=0;dashed=1;exitX=0.5;exitY=1;exitDx=0;exitDy=0;" edge="1" parent="1" source="l8u6pm3dY9Aq0G2dfLFQ-30">
          <mxGeometry width="50" height="50" relative="1" as="geometry">
            <mxPoint x="520" y="680" as="sourcePoint" />
            <mxPoint x="510" y="860" as="targetPoint" />
          </mxGeometry>
        </mxCell>
        <mxCell id="l8u6pm3dY9Aq0G2dfLFQ-57" value="" style="group" vertex="1" connectable="0" parent="1">
          <mxGeometry x="-90" y="600" width="180" height="80" as="geometry" />
        </mxCell>
        <mxCell id="l8u6pm3dY9Aq0G2dfLFQ-58" value="Form4.cs" style="rounded=0;whiteSpace=wrap;html=1;" vertex="1" parent="l8u6pm3dY9Aq0G2dfLFQ-57">
          <mxGeometry x="20" width="160" height="80" as="geometry" />
        </mxCell>
        <mxCell id="l8u6pm3dY9Aq0G2dfLFQ-59" value="" style="rounded=0;whiteSpace=wrap;html=1;" vertex="1" parent="l8u6pm3dY9Aq0G2dfLFQ-57">
          <mxGeometry y="10" width="40" height="20" as="geometry" />
        </mxCell>
        <mxCell id="l8u6pm3dY9Aq0G2dfLFQ-60" value="" style="rounded=0;whiteSpace=wrap;html=1;" vertex="1" parent="l8u6pm3dY9Aq0G2dfLFQ-57">
          <mxGeometry y="50" width="40" height="20" as="geometry" />
        </mxCell>
        <mxCell id="l8u6pm3dY9Aq0G2dfLFQ-61" value="" style="endArrow=classic;html=1;rounded=0;dashed=1;exitX=0;exitY=0.5;exitDx=0;exitDy=0;entryX=1;entryY=0.5;entryDx=0;entryDy=0;" edge="1" parent="1" source="l8u6pm3dY9Aq0G2dfLFQ-34" target="l8u6pm3dY9Aq0G2dfLFQ-58">
          <mxGeometry width="50" height="50" relative="1" as="geometry">
            <mxPoint y="420" as="sourcePoint" />
            <mxPoint y="600" as="targetPoint" />
          </mxGeometry>
        </mxCell>
      </root>
    </mxGraphModel>
  </diagram>
</mxfile>
